<svg width="52" height="39" viewBox="0 0 52 39" fill="none" xmlns="http://www.w3.org/2000/svg">
<path d="M46.3295 0.240493H32.0238L32.0541 2.19784H33.4002C36.4054 2.25128 37.2299 4.00822 37.6775 7.76927V23.4681L14.3057 0.247174V0H0L0.0302873 1.95401H1.39322C4.3984 2.00745 5.22288 3.76439 5.67046 7.5221V31.2374C5.22288 34.9985 4.3984 36.742 1.39322 36.8088H0.0471136L0 38.7461H19.9762L19.9459 36.7888H18.583C15.5778 36.7354 14.7533 34.9784 14.3057 31.2174V15.7256L37.6943 38.9399V39H46.3295V7.76259C46.7771 4.00822 47.6016 2.2446 50.6068 2.19116H51.9697L52 0.233813L46.3295 0.240493Z" fill="#F9F9F9"/>
</svg>
