<svg width="508" height="316" viewBox="0 0 508 316" fill="none" xmlns="http://www.w3.org/2000/svg">
<rect width="508" height="316" rx="9" fill="white"/>
<mask id="mask0" mask-type="alpha" maskUnits="userSpaceOnUse" x="35" y="0" width="473" height="316">
<rect x="35" width="473" height="316" rx="10.179" fill="white"/>
</mask>
<g mask="url(#mask0)">
<rect x="115.012" y="82.4746" width="1051.28" height="992.111" rx="25.1543" fill="white" stroke="#EFEFEF" stroke-width="3.94477"/>
<mask id="path-5-inside-1" fill="white">
<path fill-rule="evenodd" clip-rule="evenodd" d="M456.99 161.37C452.605 161.37 449.051 164.924 449.051 169.309V206.076C449.051 206.859 449.164 207.616 449.376 208.331C449.164 209.045 449.051 209.802 449.051 210.585V754.138C449.051 758.522 452.605 762.077 456.99 762.077H1032.12C1036.5 762.077 1040.05 758.522 1040.05 754.138V210.585C1040.05 206.201 1036.5 202.647 1032.12 202.647H563.553V169.309C563.553 164.924 559.998 161.37 555.614 161.37H456.99Z"/>
</mask>
<path fill-rule="evenodd" clip-rule="evenodd" d="M456.99 161.37C452.605 161.37 449.051 164.924 449.051 169.309V206.076C449.051 206.859 449.164 207.616 449.376 208.331C449.164 209.045 449.051 209.802 449.051 210.585V754.138C449.051 758.522 452.605 762.077 456.99 762.077H1032.12C1036.5 762.077 1040.05 758.522 1040.05 754.138V210.585C1040.05 206.201 1036.5 202.647 1032.12 202.647H563.553V169.309C563.553 164.924 559.998 161.37 555.614 161.37H456.99Z" fill="white"/>
<path d="M449.376 208.331L451.068 208.831L451.215 208.331L451.068 207.831L449.376 208.331ZM563.553 202.647H561.788V204.411H563.553V202.647ZM450.815 169.309C450.815 165.899 453.58 163.134 456.99 163.134V159.606C451.631 159.606 447.287 163.95 447.287 169.309H450.815ZM450.815 206.076V169.309H447.287V206.076H450.815ZM451.068 207.831C450.904 207.276 450.815 206.688 450.815 206.076H447.287C447.287 207.03 447.425 207.956 447.684 208.831L451.068 207.831ZM450.815 210.585C450.815 209.973 450.904 209.385 451.068 208.831L447.684 207.831C447.425 208.706 447.287 209.631 447.287 210.585H450.815ZM450.815 754.138V210.585H447.287V754.138H450.815ZM456.99 760.313C453.58 760.313 450.815 757.548 450.815 754.138H447.287C447.287 759.497 451.631 763.841 456.99 763.841V760.313ZM1032.12 760.313H456.99V763.841H1032.12V760.313ZM1038.29 754.138C1038.29 757.548 1035.53 760.313 1032.12 760.313V763.841C1037.47 763.841 1041.82 759.497 1041.82 754.138H1038.29ZM1038.29 210.585V754.138H1041.82V210.585H1038.29ZM1032.12 204.411C1035.53 204.411 1038.29 207.175 1038.29 210.585H1041.82C1041.82 205.227 1037.47 200.882 1032.12 200.882V204.411ZM563.553 204.411H1032.12V200.882H563.553V204.411ZM561.788 169.309V202.647H565.317V169.309H561.788ZM555.614 163.134C559.024 163.134 561.788 165.899 561.788 169.309H565.317C565.317 163.95 560.973 159.606 555.614 159.606V163.134ZM456.99 163.134H555.614V159.606H456.99V163.134Z" fill="#E6ECF8" mask="url(#path-5-inside-1)"/>
<rect x="487.863" y="248.698" width="147.31" height="29.9912" rx="14.9956" stroke="#E6ECF8" stroke-width="1.76419"/>
<path d="M208.663 237.131V241.479H187.379V237.131H195.361V211.345L187.942 215.95V211.089L197.612 205.052H200.681V237.131H208.663ZM226.089 204.643C230.591 204.643 234.053 206.178 236.474 209.248C238.896 212.317 240.107 216.717 240.107 222.447C240.107 226.506 239.527 230.002 238.367 232.935C237.242 235.835 235.588 238.052 233.405 239.586C231.256 241.121 228.681 241.889 225.679 241.889C223.531 241.889 221.45 241.513 219.438 240.763C217.425 239.979 215.669 238.887 214.168 237.489L216.01 233.6C217.715 234.999 219.335 236.022 220.87 236.67C222.439 237.284 223.991 237.591 225.526 237.591C228.493 237.591 230.778 236.295 232.381 233.703C234.019 231.077 234.837 227.359 234.837 222.55V222.396C234.087 224.17 232.859 225.568 231.154 226.591C229.482 227.615 227.555 228.126 225.372 228.126C223.189 228.126 221.245 227.649 219.54 226.694C217.835 225.705 216.504 224.34 215.549 222.601C214.594 220.827 214.117 218.798 214.117 216.513C214.117 214.227 214.628 212.198 215.652 210.424C216.675 208.617 218.09 207.201 219.898 206.178C221.74 205.155 223.803 204.643 226.089 204.643ZM226.344 223.829C228.527 223.829 230.301 223.146 231.665 221.782C233.03 220.384 233.712 218.593 233.712 216.41C233.712 214.193 233.03 212.403 231.665 211.038C230.301 209.64 228.527 208.941 226.344 208.941C224.196 208.941 222.473 209.623 221.177 210.987C219.881 212.351 219.233 214.159 219.233 216.41C219.233 218.627 219.881 220.418 221.177 221.782C222.507 223.146 224.23 223.829 226.344 223.829ZM257.891 241.889C253.662 241.889 250.439 240.303 248.222 237.131C246.005 233.959 244.896 229.337 244.896 223.266C244.896 217.195 246.005 212.573 248.222 209.401C250.439 206.229 253.662 204.643 257.891 204.643C262.12 204.643 265.344 206.229 267.561 209.401C269.778 212.539 270.886 217.144 270.886 223.215C270.886 229.32 269.778 233.959 267.561 237.131C265.344 240.303 262.12 241.889 257.891 241.889ZM257.891 237.642C260.517 237.642 262.444 236.483 263.672 234.163C264.934 231.81 265.565 228.16 265.565 223.215C265.565 218.269 264.951 214.654 263.724 212.368C262.496 210.083 260.551 208.941 257.891 208.941C255.265 208.941 253.321 210.1 252.059 212.42C250.831 214.705 250.217 218.303 250.217 223.215C250.217 228.16 250.831 231.81 252.059 234.163C253.321 236.483 255.265 237.642 257.891 237.642Z" fill="url(#paint0_linear)"/>
<path d="M273.47 243.887L278.021 229.632H279.591L275.022 243.887H273.47ZM289.546 233.778C291.522 233.778 292.51 234.966 292.51 237.342V242.881H290.728V237.43C290.728 236.665 290.593 236.107 290.323 235.754C290.064 235.401 289.64 235.225 289.052 235.225C288.37 235.225 287.829 235.46 287.429 235.93C287.041 236.401 286.847 237.042 286.847 237.853V242.881H285.065V237.43C285.065 236.665 284.93 236.107 284.66 235.754C284.401 235.401 283.977 235.225 283.389 235.225C282.707 235.225 282.166 235.46 281.766 235.93C281.366 236.401 281.166 237.042 281.166 237.853V242.881H279.402V236.495C279.402 235.566 279.355 234.731 279.261 233.99H280.92L281.078 235.472C281.337 234.93 281.708 234.513 282.19 234.219C282.672 233.925 283.236 233.778 283.883 233.778C285.259 233.778 286.159 234.348 286.583 235.489C286.853 234.96 287.247 234.542 287.765 234.237C288.294 233.931 288.888 233.778 289.546 233.778ZM298.891 243.005C298.021 243.005 297.256 242.816 296.598 242.44C295.939 242.064 295.428 241.529 295.063 240.835C294.71 240.141 294.534 239.329 294.534 238.4C294.534 237.471 294.71 236.659 295.063 235.965C295.428 235.26 295.939 234.719 296.598 234.342C297.256 233.966 298.021 233.778 298.891 233.778C299.75 233.778 300.508 233.966 301.167 234.342C301.826 234.719 302.331 235.26 302.684 235.965C303.049 236.659 303.231 237.471 303.231 238.4C303.231 239.329 303.049 240.141 302.684 240.835C302.331 241.529 301.826 242.064 301.167 242.44C300.508 242.816 299.75 243.005 298.891 243.005ZM298.874 241.593C299.697 241.593 300.326 241.323 300.761 240.782C301.196 240.241 301.414 239.447 301.414 238.4C301.414 237.377 301.191 236.589 300.744 236.036C300.308 235.483 299.691 235.207 298.891 235.207C298.08 235.207 297.45 235.483 297.004 236.036C296.557 236.589 296.333 237.377 296.333 238.4C296.333 239.447 296.551 240.241 296.986 240.782C297.433 241.323 298.062 241.593 298.874 241.593Z" fill="url(#paint1_linear)"/>
<path d="M179.186 215.66C179.186 216.601 178.851 217.389 178.181 218.024C177.51 218.659 176.622 219.041 175.517 219.171V221.111H174.282V219.188C173.47 219.141 172.718 218.982 172.024 218.712C171.342 218.441 170.742 218.065 170.224 217.583L170.771 216.471C171.336 216.954 171.9 217.312 172.465 217.547C173.041 217.783 173.664 217.918 174.335 217.953V213.472C173.523 213.261 172.853 213.037 172.324 212.802C171.794 212.567 171.347 212.226 170.983 211.779C170.63 211.32 170.454 210.72 170.454 209.979C170.454 209.332 170.612 208.75 170.93 208.233C171.259 207.715 171.712 207.298 172.288 206.98C172.865 206.651 173.529 206.451 174.282 206.38V204.457H175.517V206.398C176.199 206.457 176.846 206.621 177.457 206.892C178.081 207.162 178.61 207.515 179.045 207.95L178.498 209.062C177.64 208.238 176.628 207.762 175.464 207.633V212.378C176.24 212.567 176.881 212.772 177.387 212.996C177.904 213.219 178.334 213.549 178.675 213.984C179.016 214.407 179.186 214.966 179.186 215.66ZM171.935 209.926C171.935 210.526 172.141 210.985 172.553 211.302C172.965 211.62 173.559 211.884 174.335 212.096V207.633C173.582 207.703 172.994 207.944 172.571 208.356C172.147 208.756 171.935 209.279 171.935 209.926ZM175.464 217.918C176.181 217.824 176.734 217.589 177.122 217.212C177.522 216.824 177.722 216.318 177.722 215.695C177.722 215.178 177.528 214.778 177.14 214.495C176.752 214.201 176.193 213.954 175.464 213.754V217.918Z" fill="url(#paint2_linear)"/>
<path d="M178.712 179.158C179.23 180.087 179.988 180.975 180.988 181.822L179.982 182.74C179.488 182.363 178.994 181.881 178.5 181.293C178.006 180.717 177.577 180.111 177.212 179.476C176.954 179.499 176.748 179.511 176.595 179.511C175.431 179.511 174.419 179.252 173.561 178.735C172.702 178.217 172.038 177.476 171.567 176.512C171.108 175.536 170.879 174.395 170.879 173.09C170.879 171.772 171.108 170.631 171.567 169.667C172.026 168.703 172.684 167.962 173.543 167.444C174.402 166.927 175.419 166.668 176.595 166.668C177.771 166.668 178.788 166.927 179.647 167.444C180.506 167.962 181.164 168.703 181.623 169.667C182.082 170.631 182.311 171.766 182.311 173.072C182.311 174.613 181.993 175.912 181.358 176.971C180.735 178.018 179.853 178.747 178.712 179.158ZM172.361 173.072C172.361 174.73 172.731 176.012 173.472 176.918C174.213 177.823 175.254 178.276 176.595 178.276C177.924 178.276 178.959 177.823 179.7 176.918C180.441 176.012 180.811 174.73 180.811 173.072C180.811 171.414 180.441 170.137 179.7 169.244C178.971 168.35 177.936 167.903 176.595 167.903C175.254 167.903 174.213 168.356 173.472 169.261C172.731 170.155 172.361 171.425 172.361 173.072ZM192.216 170.496V179.37H190.823V177.835C190.54 178.376 190.146 178.788 189.641 179.07C189.135 179.352 188.564 179.494 187.929 179.494C186.882 179.494 186.089 179.2 185.548 178.611C185.007 178.023 184.736 177.153 184.736 176V170.496H186.165V175.965C186.165 176.765 186.33 177.353 186.659 177.729C186.988 178.106 187.488 178.294 188.159 178.294C188.947 178.294 189.582 178.041 190.064 177.535C190.546 177.018 190.787 176.342 190.787 175.506V170.496H192.216ZM198.64 179.494C197.805 179.494 197.07 179.305 196.435 178.929C195.8 178.553 195.306 178.018 194.953 177.324C194.612 176.63 194.442 175.818 194.442 174.889C194.442 173.96 194.612 173.148 194.953 172.454C195.306 171.761 195.8 171.225 196.435 170.849C197.07 170.473 197.805 170.284 198.64 170.284C199.476 170.284 200.211 170.473 200.846 170.849C201.481 171.225 201.969 171.761 202.31 172.454C202.663 173.148 202.839 173.96 202.839 174.889C202.839 175.818 202.663 176.63 202.31 177.324C201.969 178.018 201.481 178.553 200.846 178.929C200.211 179.305 199.476 179.494 198.64 179.494ZM198.64 178.312C199.523 178.312 200.199 178.023 200.669 177.447C201.14 176.859 201.375 176.006 201.375 174.889C201.375 173.807 201.134 172.972 200.652 172.384C200.169 171.784 199.499 171.484 198.64 171.484C197.77 171.484 197.094 171.784 196.612 172.384C196.129 172.972 195.888 173.807 195.888 174.889C195.888 176.006 196.124 176.859 196.594 177.447C197.076 178.023 197.758 178.312 198.64 178.312ZM206.955 171.625V176.477C206.955 177.135 207.09 177.6 207.361 177.87C207.631 178.129 208.013 178.259 208.507 178.259C208.837 178.259 209.154 178.206 209.46 178.1V179.317C209.095 179.435 208.684 179.494 208.225 179.494C207.378 179.494 206.714 179.258 206.232 178.788C205.761 178.306 205.526 177.6 205.526 176.671V171.625H203.797V170.496H205.526V168.22L206.955 167.709V170.496H209.495V171.625H206.955ZM218.645 174.889H212.135C212.147 176.018 212.405 176.871 212.911 177.447C213.429 178.023 214.175 178.312 215.152 178.312C216.187 178.312 217.139 177.965 218.01 177.271L218.486 178.312C218.098 178.676 217.598 178.964 216.986 179.176C216.386 179.388 215.769 179.494 215.134 179.494C213.746 179.494 212.658 179.088 211.87 178.276C211.082 177.453 210.688 176.33 210.688 174.907C210.688 174.001 210.865 173.201 211.217 172.507C211.57 171.802 212.064 171.255 212.699 170.867C213.334 170.479 214.058 170.284 214.869 170.284C216.045 170.284 216.969 170.673 217.639 171.449C218.309 172.213 218.645 173.272 218.645 174.624V174.889ZM214.887 171.396C214.146 171.396 213.54 171.619 213.07 172.066C212.611 172.513 212.317 173.142 212.188 173.954H217.357C217.286 173.119 217.039 172.484 216.616 172.049C216.204 171.613 215.628 171.396 214.887 171.396ZM228.624 168.044H224.249V166.809H234.464V168.044H230.089V179.37H228.624V168.044ZM238.352 179.494C237.517 179.494 236.782 179.305 236.147 178.929C235.512 178.553 235.018 178.018 234.665 177.324C234.324 176.63 234.153 175.818 234.153 174.889C234.153 173.96 234.324 173.148 234.665 172.454C235.018 171.761 235.512 171.225 236.147 170.849C236.782 170.473 237.517 170.284 238.352 170.284C239.187 170.284 239.922 170.473 240.557 170.849C241.192 171.225 241.68 171.761 242.022 172.454C242.374 173.148 242.551 173.96 242.551 174.889C242.551 175.818 242.374 176.63 242.022 177.324C241.68 178.018 241.192 178.553 240.557 178.929C239.922 179.305 239.187 179.494 238.352 179.494ZM238.352 178.312C239.234 178.312 239.91 178.023 240.381 177.447C240.851 176.859 241.087 176.006 241.087 174.889C241.087 173.807 240.845 172.972 240.363 172.384C239.881 171.784 239.211 171.484 238.352 171.484C237.482 171.484 236.805 171.784 236.323 172.384C235.841 172.972 235.6 173.807 235.6 174.889C235.6 176.006 235.835 176.859 236.306 177.447C236.788 178.023 237.47 178.312 238.352 178.312ZM246.666 171.625V176.477C246.666 177.135 246.802 177.6 247.072 177.87C247.343 178.129 247.725 178.259 248.219 178.259C248.548 178.259 248.866 178.206 249.172 178.1V179.317C248.807 179.435 248.395 179.494 247.937 179.494C247.09 179.494 246.425 179.258 245.943 178.788C245.473 178.306 245.237 177.6 245.237 176.671V171.625H243.509V170.496H245.237V168.22L246.666 167.709V170.496H249.207V171.625H246.666ZM258.744 170.496V179.37H257.333V177.765C257.074 178.317 256.68 178.747 256.151 179.053C255.633 179.347 255.028 179.494 254.334 179.494C253.546 179.494 252.852 179.305 252.252 178.929C251.664 178.553 251.205 178.023 250.876 177.341C250.558 176.647 250.4 175.842 250.4 174.924C250.4 174.007 250.564 173.201 250.894 172.507C251.223 171.802 251.682 171.255 252.27 170.867C252.87 170.479 253.558 170.284 254.334 170.284C255.028 170.284 255.633 170.437 256.151 170.743C256.668 171.049 257.062 171.478 257.333 172.031V170.496H258.744ZM254.616 178.312C255.486 178.312 256.157 178.018 256.627 177.429C257.098 176.83 257.333 175.983 257.333 174.889C257.333 173.795 257.098 172.954 256.627 172.366C256.157 171.778 255.486 171.484 254.616 171.484C253.746 171.484 253.064 171.79 252.57 172.402C252.087 173.001 251.846 173.842 251.846 174.924C251.846 176.006 252.087 176.841 252.57 177.429C253.052 178.018 253.734 178.312 254.616 178.312ZM261.507 166.386H262.936V179.37H261.507V166.386Z" fill="#2F2E41"/>
<path d="M177.225 294.184C176.037 294.184 175.002 293.925 174.12 293.407C173.249 292.89 172.579 292.149 172.108 291.184C171.638 290.208 171.403 289.062 171.403 287.744C171.403 286.427 171.638 285.292 172.108 284.339C172.579 283.375 173.249 282.634 174.12 282.116C175.002 281.599 176.037 281.34 177.225 281.34C178.095 281.34 178.889 281.476 179.606 281.746C180.335 282.005 180.965 282.399 181.494 282.928L180.947 284.039C180.347 283.522 179.753 283.151 179.165 282.928C178.589 282.705 177.948 282.593 177.242 282.593C175.866 282.593 174.796 283.04 174.031 283.934C173.279 284.827 172.902 286.098 172.902 287.744C172.902 289.403 173.279 290.685 174.031 291.59C174.784 292.484 175.854 292.931 177.242 292.931C177.948 292.931 178.589 292.819 179.165 292.596C179.753 292.372 180.347 292.002 180.947 291.484L181.494 292.596C180.965 293.125 180.335 293.525 179.606 293.795C178.889 294.054 178.095 294.184 177.225 294.184ZM187.242 294.166C186.407 294.166 185.672 293.978 185.037 293.601C184.402 293.225 183.908 292.69 183.555 291.996C183.214 291.302 183.043 290.491 183.043 289.561C183.043 288.632 183.214 287.821 183.555 287.127C183.908 286.433 184.402 285.898 185.037 285.521C185.672 285.145 186.407 284.957 187.242 284.957C188.077 284.957 188.812 285.145 189.447 285.521C190.083 285.898 190.571 286.433 190.912 287.127C191.265 287.821 191.441 288.632 191.441 289.561C191.441 290.491 191.265 291.302 190.912 291.996C190.571 292.69 190.083 293.225 189.447 293.601C188.812 293.978 188.077 294.166 187.242 294.166ZM187.242 292.984C188.124 292.984 188.801 292.696 189.271 292.119C189.741 291.531 189.977 290.679 189.977 289.561C189.977 288.479 189.736 287.644 189.253 287.056C188.771 286.456 188.101 286.156 187.242 286.156C186.372 286.156 185.696 286.456 185.213 287.056C184.731 287.644 184.49 288.479 184.49 289.561C184.49 290.679 184.725 291.531 185.196 292.119C185.678 292.696 186.36 292.984 187.242 292.984ZM196.668 294.166C195.174 294.166 193.992 293.784 193.122 293.019L193.598 291.961C194.08 292.337 194.568 292.608 195.062 292.772C195.556 292.937 196.109 293.019 196.721 293.019C197.391 293.019 197.897 292.907 198.238 292.684C198.591 292.449 198.767 292.114 198.767 291.678C198.767 291.326 198.649 291.043 198.414 290.832C198.179 290.62 197.791 290.455 197.25 290.338L195.75 289.985C195.009 289.82 194.433 289.526 194.021 289.103C193.621 288.679 193.422 288.174 193.422 287.585C193.422 286.809 193.733 286.18 194.357 285.698C194.98 285.204 195.803 284.957 196.826 284.957C197.45 284.957 198.038 285.057 198.591 285.257C199.143 285.457 199.608 285.745 199.984 286.121L199.508 287.162C198.673 286.468 197.779 286.121 196.826 286.121C196.191 286.121 195.697 286.245 195.344 286.492C195.003 286.727 194.833 287.062 194.833 287.497C194.833 287.862 194.939 288.15 195.15 288.362C195.374 288.573 195.727 288.738 196.209 288.856L197.708 289.226C198.532 289.414 199.143 289.708 199.543 290.108C199.943 290.496 200.143 291.008 200.143 291.643C200.143 292.408 199.831 293.019 199.208 293.478C198.585 293.937 197.738 294.166 196.668 294.166ZM204.24 286.298V291.149C204.24 291.808 204.375 292.272 204.645 292.543C204.916 292.802 205.298 292.931 205.792 292.931C206.122 292.931 206.439 292.878 206.745 292.772V293.989C206.38 294.107 205.969 294.166 205.51 294.166C204.663 294.166 203.999 293.931 203.516 293.46C203.046 292.978 202.811 292.272 202.811 291.343V286.298H201.082V285.169H202.811V282.893L204.24 282.381V285.169H206.78V286.298H204.24ZM217.266 294.184C215.302 294.184 213.737 293.654 212.573 292.596L213.12 291.484C213.743 292.014 214.378 292.39 215.025 292.613C215.672 292.837 216.425 292.949 217.283 292.949C218.295 292.949 219.071 292.755 219.612 292.366C220.165 291.967 220.441 291.408 220.441 290.69C220.441 290.267 220.306 289.926 220.035 289.667C219.777 289.397 219.43 289.185 218.995 289.032C218.571 288.879 218.001 288.72 217.283 288.556C216.319 288.344 215.525 288.115 214.902 287.868C214.278 287.621 213.773 287.268 213.384 286.809C212.996 286.339 212.802 285.727 212.802 284.974C212.802 284.257 212.99 283.628 213.367 283.087C213.743 282.534 214.272 282.105 214.955 281.799C215.648 281.493 216.454 281.34 217.372 281.34C218.242 281.34 219.053 281.476 219.806 281.746C220.559 282.017 221.194 282.411 221.711 282.928L221.147 284.039C220.559 283.534 219.959 283.163 219.347 282.928C218.748 282.693 218.089 282.575 217.372 282.575C216.395 282.575 215.631 282.787 215.078 283.21C214.525 283.622 214.249 284.192 214.249 284.922C214.249 285.557 214.49 286.033 214.972 286.351C215.454 286.668 216.195 286.944 217.195 287.18C218.277 287.438 219.124 287.68 219.736 287.903C220.359 288.115 220.876 288.444 221.288 288.891C221.7 289.326 221.905 289.908 221.905 290.638C221.905 291.343 221.717 291.967 221.341 292.508C220.965 293.037 220.424 293.448 219.718 293.743C219.024 294.037 218.207 294.184 217.266 294.184ZM231.521 285.169V294.042H230.127V292.508C229.845 293.049 229.451 293.46 228.945 293.743C228.44 294.025 227.869 294.166 227.234 294.166C226.187 294.166 225.394 293.872 224.852 293.284C224.311 292.696 224.041 291.825 224.041 290.673V285.169H225.47V290.638C225.47 291.437 225.635 292.025 225.964 292.402C226.293 292.778 226.793 292.966 227.464 292.966C228.252 292.966 228.887 292.713 229.369 292.208C229.851 291.69 230.092 291.014 230.092 290.179V285.169H231.521ZM244.12 284.957C246.084 284.957 247.066 286.127 247.066 288.468V294.042H245.637V288.538C245.637 287.703 245.49 287.097 245.196 286.721C244.914 286.345 244.449 286.156 243.803 286.156C243.05 286.156 242.462 286.409 242.038 286.915C241.615 287.421 241.403 288.109 241.403 288.979V294.042H239.974V288.538C239.974 287.715 239.827 287.115 239.533 286.739C239.239 286.351 238.769 286.156 238.122 286.156C237.369 286.156 236.775 286.409 236.34 286.915C235.917 287.421 235.705 288.109 235.705 288.979V294.042H234.276V287.656C234.276 286.739 234.229 285.909 234.135 285.169H235.493L235.634 286.721C235.881 286.156 236.246 285.721 236.728 285.416C237.222 285.11 237.793 284.957 238.439 284.957C239.145 284.957 239.721 285.098 240.168 285.38C240.615 285.663 240.945 286.098 241.156 286.686C241.427 286.156 241.821 285.739 242.338 285.433C242.868 285.116 243.461 284.957 244.12 284.957ZM259.626 284.957C261.59 284.957 262.572 286.127 262.572 288.468V294.042H261.143V288.538C261.143 287.703 260.996 287.097 260.702 286.721C260.42 286.345 259.955 286.156 259.308 286.156C258.555 286.156 257.967 286.409 257.544 286.915C257.121 287.421 256.909 288.109 256.909 288.979V294.042H255.48V288.538C255.48 287.715 255.333 287.115 255.039 286.739C254.745 286.351 254.274 286.156 253.627 286.156C252.875 286.156 252.281 286.409 251.846 286.915C251.422 287.421 251.21 288.109 251.21 288.979V294.042H249.781V287.656C249.781 286.739 249.734 285.909 249.64 285.169H250.999L251.14 286.721C251.387 286.156 251.751 285.721 252.234 285.416C252.728 285.11 253.298 284.957 253.945 284.957C254.651 284.957 255.227 285.098 255.674 285.38C256.121 285.663 256.45 286.098 256.662 286.686C256.932 286.156 257.326 285.739 257.844 285.433C258.373 285.116 258.967 284.957 259.626 284.957ZM273.102 285.169V294.042H271.691V292.437C271.432 292.99 271.038 293.419 270.509 293.725C269.992 294.019 269.386 294.166 268.692 294.166C267.904 294.166 267.21 293.978 266.61 293.601C266.022 293.225 265.563 292.696 265.234 292.014C264.917 291.32 264.758 290.514 264.758 289.597C264.758 288.679 264.922 287.874 265.252 287.18C265.581 286.474 266.04 285.927 266.628 285.539C267.228 285.151 267.916 284.957 268.692 284.957C269.386 284.957 269.992 285.11 270.509 285.416C271.027 285.721 271.421 286.151 271.691 286.703V285.169H273.102ZM268.974 292.984C269.845 292.984 270.515 292.69 270.985 292.102C271.456 291.502 271.691 290.655 271.691 289.561C271.691 288.468 271.456 287.627 270.985 287.039C270.515 286.451 269.845 286.156 268.974 286.156C268.104 286.156 267.422 286.462 266.928 287.074C266.446 287.674 266.204 288.515 266.204 289.597C266.204 290.679 266.446 291.514 266.928 292.102C267.41 292.69 268.092 292.984 268.974 292.984ZM279.994 284.957C280.288 284.957 280.558 284.992 280.805 285.063L280.77 286.368C280.499 286.274 280.188 286.227 279.835 286.227C278.976 286.227 278.335 286.498 277.912 287.039C277.5 287.568 277.294 288.215 277.294 288.979V294.042H275.865V287.656C275.865 286.739 275.818 285.909 275.724 285.169H277.083L277.224 286.809C277.447 286.209 277.806 285.751 278.3 285.433C278.794 285.116 279.358 284.957 279.994 284.957ZM290.589 285.169L286.443 294.854C286.008 295.865 285.461 296.606 284.802 297.077C284.144 297.547 283.332 297.871 282.368 298.047L282.068 296.936C282.903 296.748 283.532 296.495 283.956 296.177C284.391 295.871 284.749 295.395 285.032 294.748L285.384 293.954L281.627 285.169H283.126L286.125 292.49L289.16 285.169H290.589Z" fill="#2F2E41"/>
<path d="M113.039 91.8123C113.039 85.5659 118.103 80.5022 124.349 80.5022H580.144V108.777H113.039V91.8123Z" fill="#EFEFEF"/>
<circle cx="126.611" cy="95.2052" r="4.52402" fill="#C4C4C4"/>
<circle cx="144.707" cy="95.2052" r="4.52402" fill="#C4C4C4"/>
<circle cx="162.803" cy="95.2052" r="4.52402" fill="#C4C4C4"/>
</g>
<path d="M42.7122 40.0544V42.7122H52.2186C53.2794 42.7078 54.3306 42.9131 55.3119 43.3161C56.2932 43.7192 57.1851 44.3121 57.9366 45.0608C58.6881 45.8096 59.2842 46.6994 59.6909 47.6792C60.0975 48.659 60.3066 49.7094 60.3061 50.7703V60.3061H62.9639C64.0229 60.3037 65.0709 60.0925 66.0482 59.6846C67.0254 59.2767 67.9126 58.68 68.659 57.9288C69.4054 57.1777 69.9964 56.2867 70.3981 55.3068C70.7997 54.327 71.0042 53.2776 70.9999 52.2186V40.0544C70.9999 37.9182 70.1513 35.8696 68.6408 34.3591C67.1303 32.8486 65.0817 32 62.9455 32H50.7702C49.7122 31.9995 48.6644 32.2075 47.6868 32.612C46.7092 33.0166 45.8208 33.6098 45.0725 34.3578C44.3242 35.1057 43.7306 35.9938 43.3256 36.9712C42.9206 37.9487 42.7122 38.9963 42.7122 40.0544V40.0544Z" fill="#525AE2"/>
<path d="M42.7122 52.2187V42.7122H40.0544C38.9964 42.7122 37.9487 42.9207 36.9713 43.3257C35.9938 43.7307 35.1057 44.3243 34.3578 45.0726C33.6098 45.8209 33.0166 46.7092 32.612 47.6869C32.2075 48.6645 31.9995 49.7122 32 50.7703V62.9456C32 65.0817 32.8486 67.1304 34.3591 68.6409C35.8696 70.1514 37.9182 70.9999 40.0544 70.9999H52.2187C53.2791 71.0043 54.3301 70.7992 55.3111 70.3964C56.2921 69.9935 57.1839 69.401 57.9354 68.6526C58.6868 67.9043 59.283 67.0149 59.6899 66.0355C60.0967 65.0561 60.3061 64.0061 60.3061 62.9456V60.3061H50.7703C49.7094 60.3066 48.659 60.0975 47.6792 59.6909C46.6994 59.2843 45.8096 58.6881 45.0608 57.9367C44.3121 57.1852 43.7192 56.2932 43.3161 55.3119C42.9131 54.3307 42.7079 53.2795 42.7122 52.2187V52.2187Z" fill="#525AE2"/>
<defs>
<linearGradient id="paint0_linear" x1="223.235" y1="200.623" x2="223.235" y2="248.257" gradientUnits="userSpaceOnUse">
<stop stop-color="#5652E2"/>
<stop offset="1" stop-color="#3C7FDE"/>
</linearGradient>
<linearGradient id="paint1_linear" x1="288.51" y1="203.711" x2="288.51" y2="250.462" gradientUnits="userSpaceOnUse">
<stop stop-color="#5652E2"/>
<stop offset="1" stop-color="#3C7FDE"/>
</linearGradient>
<linearGradient id="paint2_linear" x1="174.719" y1="201.065" x2="174.719" y2="252.226" gradientUnits="userSpaceOnUse">
<stop stop-color="#5652E2"/>
<stop offset="1" stop-color="#3C7FDE"/>
</linearGradient>
</defs>
</svg>
